<svg xmlns="http://www.w3.org/2000/svg" viewBox="0 0 128 128"><defs><radialGradient id="g0" cx="0.35" cy="0.3" r="0.8"><stop offset="0" stop-color="#6f5c92"/><stop offset="0.5" stop-color="#33264d"/><stop offset="1" stop-color="#150f24"/></radialGradient><radialGradient id="g1" cx="0.5" cy="0.5" r="0.5"><stop offset="0" stop-color="#fff" stop-opacity="0.7"/><stop offset="1" stop-color="#fff" stop-opacity="0"/></radialGradient><radialGradient id="g2" cx="0.35" cy="0.3" r="0.8"><stop offset="0" stop-color="#6f5c92"/><stop offset="0.5" stop-color="#33264d"/><stop offset="1" stop-color="#150f24"/></radialGradient><radialGradient id="g3" cx="0.5" cy="0.5" r="0.5"><stop offset="0" stop-color="#fff" stop-opacity="0.7"/><stop offset="1" stop-color="#fff" stop-opacity="0"/></radialGradient><radialGradient id="g4" cx="0.35" cy="0.3" r="0.8"><stop offset="0" stop-color="#6f5c92"/><stop offset="0.5" stop-color="#33264d"/><stop offset="1" stop-color="#150f24"/></radialGradient><radialGradient id="g5" cx="0.5" cy="0.5" r="0.5"><stop offset="0" stop-color="#fff" stop-opacity="0.7"/><stop offset="1" stop-color="#fff" stop-opacity="0"/></radialGradient></defs><ellipse cx="44" cy="60" rx="24" ry="30" transform="rotate(-28 44 60)" fill="url(#g0)"/><ellipse cx="34" cy="46" rx="6" ry="10" transform="rotate(-28 34 46)" fill="url(#g1)"/><ellipse cx="82" cy="46" rx="22" ry="28" transform="rotate(28 82 46)" fill="url(#g2)"/><ellipse cx="74" cy="32" rx="5" ry="9" transform="rotate(28 74 32)" fill="url(#g3)"/><ellipse cx="80" cy="92" rx="30" ry="22" transform="rotate(-8 80 92)" fill="url(#g4)"/><ellipse cx="68" cy="84" rx="10" ry="5" transform="rotate(-8 68 84)" fill="url(#g5)"/><ellipse cx="34" cy="98" rx="20" ry="17" fill="#2a1f40"/><ellipse cx="34" cy="98" rx="14" ry="11.5" fill="#8f7fb0"/><ellipse cx="34" cy="98" rx="8" ry="6" fill="#f3ead6"/></svg>