<svg xmlns="http://www.w3.org/2000/svg" viewBox="0 0 128 128"><defs><radialGradient id="g0" cx="0.35" cy="0.3" r="0.8"><stop offset="0" stop-color="#c3d873"/><stop offset="0.5" stop-color="#7a9a35"/><stop offset="1" stop-color="#3d5a1d"/></radialGradient><radialGradient id="g1" cx="0.5" cy="0.5" r="0.5"><stop offset="0" stop-color="#fff" stop-opacity="0.7"/><stop offset="1" stop-color="#fff" stop-opacity="0"/></radialGradient><radialGradient id="g2" cx="0.35" cy="0.3" r="0.8"><stop offset="0" stop-color="#c3d873"/><stop offset="0.5" stop-color="#7a9a35"/><stop offset="1" stop-color="#3d5a1d"/></radialGradient><radialGradient id="g3" cx="0.5" cy="0.5" r="0.5"><stop offset="0" stop-color="#fff" stop-opacity="0.7"/><stop offset="1" stop-color="#fff" stop-opacity="0"/></radialGradient><radialGradient id="g4" cx="0.35" cy="0.3" r="0.8"><stop offset="0" stop-color="#c3d873"/><stop offset="0.5" stop-color="#7a9a35"/><stop offset="1" stop-color="#3d5a1d"/></radialGradient><radialGradient id="g5" cx="0.5" cy="0.5" r="0.5"><stop offset="0" stop-color="#fff" stop-opacity="0.7"/><stop offset="1" stop-color="#fff" stop-opacity="0"/></radialGradient><radialGradient id="g6" cx="0.35" cy="0.3" r="0.8"><stop offset="0" stop-color="#c3d873"/><stop offset="0.5" stop-color="#7a9a35"/><stop offset="1" stop-color="#3d5a1d"/></radialGradient><radialGradient id="g7" cx="0.5" cy="0.5" r="0.5"><stop offset="0" stop-color="#fff" stop-opacity="0.7"/><stop offset="1" stop-color="#fff" stop-opacity="0"/></radialGradient><radialGradient id="g8" cx="0.35" cy="0.3" r="0.8"><stop offset="0" stop-color="#c3d873"/><stop offset="0.5" stop-color="#7a9a35"/><stop offset="1" stop-color="#3d5a1d"/></radialGradient><radialGradient id="g9" cx="0.5" cy="0.5" r="0.5"><stop offset="0" stop-color="#fff" stop-opacity="0.7"/><stop offset="1" stop-color="#fff" stop-opacity="0"/></radialGradient></defs><circle cx="44" cy="46" r="17" fill="url(#g0)"/><path d="M38.9 30.7 Q33.8 46 38.9 61.3" stroke="#4b6a22" stroke-width="1.4" fill="none" opacity=".5"/><ellipse cx="38.05" cy="39.2" rx="5.949999999999999" ry="3.74" transform="rotate(-35 38.05 39.2)" fill="url(#g1)"/><path d="M47.4 30.7 l4 -8" stroke="#6b7a2a" stroke-width="2.4" stroke-linecap="round"/><circle cx="84" cy="42" r="15" fill="url(#g2)"/><path d="M79.5 28.5 Q75 42 79.5 55.5" stroke="#4b6a22" stroke-width="1.4" fill="none" opacity=".5"/><ellipse cx="78.75" cy="36" rx="5.25" ry="3.3" transform="rotate(-35 78.75 36)" fill="url(#g3)"/><path d="M87 28.5 l4 -8" stroke="#6b7a2a" stroke-width="2.4" stroke-linecap="round"/><circle cx="64" cy="78" r="20" fill="url(#g4)"/><path d="M58 60 Q52 78 58 96" stroke="#4b6a22" stroke-width="1.4" fill="none" opacity=".5"/><ellipse cx="57" cy="70" rx="7" ry="4.4" transform="rotate(-35 57 70)" fill="url(#g5)"/><path d="M68 60 l4 -8" stroke="#6b7a2a" stroke-width="2.4" stroke-linecap="round"/><circle cx="30" cy="90" r="14" fill="url(#g6)"/><path d="M25.8 77.4 Q21.6 90 25.8 102.6" stroke="#4b6a22" stroke-width="1.4" fill="none" opacity=".5"/><ellipse cx="25.1" cy="84.4" rx="4.8999999999999995" ry="3.08" transform="rotate(-35 25.1 84.4)" fill="url(#g7)"/><path d="M32.8 77.4 l4 -8" stroke="#6b7a2a" stroke-width="2.4" stroke-linecap="round"/><circle cx="98" cy="86" r="16" fill="url(#g8)"/><path d="M93.2 71.6 Q88.4 86 93.2 100.4" stroke="#4b6a22" stroke-width="1.4" fill="none" opacity=".5"/><ellipse cx="92.4" cy="79.6" rx="5.6" ry="3.52" transform="rotate(-35 92.4 79.6)" fill="url(#g9)"/><path d="M101.2 71.6 l4 -8" stroke="#6b7a2a" stroke-width="2.4" stroke-linecap="round"/></svg>