<svg xmlns="http://www.w3.org/2000/svg" viewBox="0 0 128 128"><defs><linearGradient id="g0" x1="0" y1="0" x2="1" y2="1"><stop offset="0" stop-color="#8be25f"/><stop offset="1" stop-color="#248a32"/></linearGradient><radialGradient id="g1" cx="0.35" cy="0.3" r="0.8"><stop offset="0" stop-color="#ffffff"/><stop offset="0.6" stop-color="#f4efe2"/><stop offset="1" stop-color="#d6cfba"/></radialGradient><radialGradient id="g2" cx="0.5" cy="0.5" r="0.5"><stop offset="0" stop-color="#fff" stop-opacity="0.8"/><stop offset="1" stop-color="#fff" stop-opacity="0"/></radialGradient><radialGradient id="g3" cx="0.35" cy="0.3" r="0.8"><stop offset="0" stop-color="#ffffff"/><stop offset="0.6" stop-color="#f4efe2"/><stop offset="1" stop-color="#d6cfba"/></radialGradient><radialGradient id="g4" cx="0.5" cy="0.5" r="0.5"><stop offset="0" stop-color="#fff" stop-opacity="0.8"/><stop offset="1" stop-color="#fff" stop-opacity="0"/></radialGradient></defs><g transform="translate(64 52) rotate(-20)"><path d="M0 0 C-22 -8 -26 -40 0 -62 C26 -40 22 -8 0 0 Z" fill="url(#g0)"/><path d="M0 -2 L0 -54" stroke="#c5f2a0" stroke-width="2" opacity=".85"/></g><circle cx="44" cy="84" r="30" fill="url(#g1)"/><ellipse cx="34" cy="72" rx="10" ry="6" transform="rotate(-30 34 72)" fill="url(#g2)"/><circle cx="88" cy="86" r="26" fill="url(#g3)"/><ellipse cx="80" cy="76" rx="8" ry="5" transform="rotate(-30 80 76)" fill="url(#g4)"/><ellipse cx="88" cy="90" rx="19" ry="17" fill="#fdfbf4"/><path d="M76 84 Q88 78 100 86 M74 94 Q88 100 102 92" stroke="#e8e2cf" stroke-width="2" fill="none" stroke-linecap="round"/></svg>