<svg xmlns="http://www.w3.org/2000/svg" viewBox="0 0 128 128"><defs><linearGradient id="g0" x1="0" y1="0" x2="1" y2="1"><stop offset="0" stop-color="#ffffff"/><stop offset="0.55" stop-color="#eef0f6"/><stop offset="1" stop-color="#c6ccdb"/></linearGradient><linearGradient id="g1" x1="0" y1="0" x2="0" y2="1"><stop offset="0" stop-color="#c9cfdd"/><stop offset="1" stop-color="#e9ecf4"/></linearGradient><radialGradient id="g2" cx="0.4" cy="0.4" r="0.8"><stop offset="0" stop-color="#ffc0a8"/><stop offset="0.7" stop-color="#f58f78"/><stop offset="1" stop-color="#d9604f"/></radialGradient><linearGradient id="g3" x1="0" y1="0" x2="1" y2="1"><stop offset="0" stop-color="#8be25f"/><stop offset="1" stop-color="#248a32"/></linearGradient></defs><ellipse cx="64" cy="116" rx="20" ry="5" fill="#b9c0d0"/><path d="M14 58 C14 96 36 112 64 112 C92 112 114 96 114 58 Z" fill="url(#g0)"/><path d="M20 72 C22 90 34 102 46 106" stroke="#fff" stroke-width="5" fill="none" opacity=".85" stroke-linecap="round"/><ellipse cx="64" cy="58" rx="50" ry="24" fill="#f7f8fc"/><ellipse cx="64" cy="59" rx="45.5" ry="20.5" fill="url(#g1)"/><ellipse cx="64" cy="59.5" rx="43" ry="18.5" fill="url(#g2)"/><path d="M38 60 C48 44 60 72 70 56 C80 42 90 66 94 58" stroke="#fff1e6" stroke-width="3.2" fill="none" opacity="0.85" stroke-linecap="round"/><path d="M38 60 C48 44 60 72 70 56 C80 42 90 66 94 58" stroke="#fff" stroke-width="3.2" fill="none" opacity="0.35" stroke-linecap="round"/><g transform="translate(64 70) rotate(-10) scale(0.65)"><path d="M0 0 C-14 -4 -16 -26 0 -40 C16 -26 14 -4 0 0 Z" fill="url(#g3)"/><path d="M0 -2 L0 -34" stroke="#d2f5b0" stroke-width="1.6" opacity=".85" stroke-linecap="round"/></g><circle cx="53.68585412030448" cy="62.400618354727875" r="1.2195785259827971" fill="#ffe1d0"/><circle cx="39.295657982861805" cy="62.399724775410924" r="1.494643074925989" fill="#ffe1d0"/><circle cx="70.39769754355271" cy="53.13908107248038" r="1.024055939167738" fill="#ffe1d0"/><circle cx="52.84846792583548" cy="57.86738026127237" r="1.2151081734336913" fill="#ffe1d0"/><circle cx="48.779135433557556" cy="51.631663810679214" r="1.1028774688020349" fill="#ffe1d0"/></svg>